<svg id="visual" viewBox="0 0 900 600" width="900" height="600" xmlns="http://www.w3.org/2000/svg" xmlns:xlink="http://www.w3.org/1999/xlink" version="1.1"><path d="M500 0L478.3 11.2C456.7 22.3 413.3 44.7 396.8 66.8C380.3 89 390.7 111 386.2 133.2C381.7 155.3 362.3 177.7 368.3 200C374.3 222.3 405.7 244.7 411.3 266.8C417 289 397 311 390.5 333.2C384 355.3 391 377.7 387 400C383 422.3 368 444.7 344.5 466.8C321 489 289 511 272.8 533.2C256.7 555.3 256.3 577.7 256.2 588.8L256 600L0 600L0 588.8C0 577.7 0 555.3 0 533.2C0 511 0 489 0 466.8C0 444.7 0 422.3 0 400C0 377.7 0 355.3 0 333.2C0 311 0 289 0 266.8C0 244.7 0 222.3 0 200C0 177.7 0 155.3 0 133.2C0 111 0 89 0 66.8C0 44.7 0 22.3 0 11.2L0 0Z" fill="#000" stroke-linecap="round" stroke-linejoin="miter"></path></svg>